# xmcd
#
# Track frame offsets: 
#        150
#        26100
#        61500
#        81900
#        102525
#        137175
#        182100
#        198450
#        217200
#        234750
#        268950
#        292575
#
# Disc length: 4204 seconds
#
# Revision: 9
# Processed by: cddbd v1.5.2PL0 Copyright (c) Steve Scherf et al.
# Submitted via: ExactAudioCopyFreeDBPlugin 1.0
#
DISCID=b1106a0c
DTITLE=Öster.-Ungar. Haydn-Philh. (Fischer, Adam) - Haydn, J. - Symph.
DTITLE=Nr. 6, 7, 8-1
DYEAR=1989
DGENRE=Classical
TTITLE0=Morning Symphony Nr 6 in D - Adagio. Alegro
TTITLE1=Morning Symphony Nr 6 in D - Adagio
TTITLE2=Morning Symphony Nr 6 in D - Menuet
TTITLE3=Morning Symphony Nr 6 in D - Finale. Allegro
TTITLE4=Noon Symphony Nr 7 in C - Adagio. Allegro
TTITLE5=Noon Symphony Nr 7 in C - Recitativo. Adagio
TTITLE6=Noon Symphony Nr 7 in C - Menuet
TTITLE7=Noon Symphony Nr 7 in C - Finale. Alegro
TTITLE8=Evening Symphony Nr 8 in G - Menuet
TTITLE9=Evening Symphony Nr 8 in G - Adante
TTITLE10=Evening Symphony Nr 8 in G - Menuet
TTITLE11=Evening Symphony Nr 8 in G - Presto
EXTD=Austro-Hungarian Haydn Orchestra\nAdam Fischer, conducting\nChris
EXTD=tian Dreo, harpsichord\nRecorded at Haydnsaal, Esterhazy Palace, 
EXTD=Eisenstadt, Austria\n\nNimbus Records 1990\nMusical Heritage Soci
EXTD=ety 1996 YEAR: 1962
EXTT0=
EXTT1=
EXTT2=
EXTT3=
EXTT4=
EXTT5=
EXTT6=
EXTT7=
EXTT8=
EXTT9=
EXTT10=
EXTT11=
PLAYORDER=
